<svg xmlns="http://www.w3.org/2000/svg" xml:space="preserve" width="1500" height="1500" data-id="lg_NUOgVoVTbuBC4WSlqH" data-version="1"><path fill="#023ea6" stroke="transparent" d="M0 0h1500v1500H0z"/><g data-padding="20"><g transform="translate(-1499.24 -1508.664)scale(2.85474)"><circle cx="264.187" cy="267.119" r="5.37" fill="#fff" transform="translate(224.394 216.406)scale(2.04)"/><path fill="#fff" d="m769.64 774.303-.061-.143h-12.526l-2.795.347h-.408q-.204 0-.408.061l-.591.061h-.062c-12.036 1.714-13.117 7.426-13.117 7.426l-.122 1.081v22.705h47.613v-22.705l-.122-1.081s-1.285-6.936-17.401-7.752m58.078 0-.061-.143h-12.505l-2.815.347h-.408q-.204 0-.408.061l-.592.061h-.061c-12.036 1.714-13.117 7.426-13.117 7.426l-.123 1.081v22.705h47.593v-22.705l-.142-1.081s-1.265-6.936-17.381-7.752"/><circle cx="264.187" cy="267.119" r="5.37" fill="#fff" transform="translate(282.453 216.406)scale(2.04)"/><circle cx="264.187" cy="267.119" r="4.07" fill="#fff" transform="translate(204.79 166.385)scale(2.04)"/><path fill="#fff" d="m781.288 718.325 22.501-24.316-18.584 26.316q.55.57.959 1.285a7.75 7.75 0 0 1 0 7.548 6.73 6.73 0 0 1-6.018 3.366H765.56v15.973a13.056 13.056 0 0 1 10.791 12.24h32.13a12.995 12.995 0 0 1 14.892-12.28v-61.303a8.71 8.71 0 0 0-8.69-8.67H774.25a8.69 8.69 0 0 0-8.67 8.67v31.07h14.566q.571 0 1.122.081"/><path fill="#fff" d="M742.753 775.751v-12.75h2.203v11.628c1.958-.836 4.447-1.57 7.609-2.02l.714-.06.408-.082 1.163-.102v-1.326a12.934 12.934 0 0 1 0-19.482v-21.89h25.296c5.304 0 5.304-8.22 0-8.22h-46.329c-6.242 0-10.159 5.1-10.159 11.464v27.112c0 5.263 6.957 5.263 6.957 0v-26.398h2.223l-.02 67.26c0 2.651 2.101 4.814 4.733 4.936v-22.93l.142-1.08c.102-.572.857-3.55 5.04-6.06m46.511 14.77h6.181v3.06h-6.18Zm58.324 0h6.181v3.06h-6.181Z"/><path fill="#fff" d="M723.454 790.521h7.181v3.06h-7.18Z"/><path fill="#fff" stroke="null" stroke-width=".93" d="m628.791 857.163 3.68 11.26h.29l4.27-11.11 4.03.12.12 12.57.56 7.54h-3.95l.15-7.6-.33-7.69-3.5 9.68-3.6.17-3.27-9.85-.27 7.69.21 7.6h-3.63l.41-7.11.18-12.54Zm27.74 20.38h-10.7l.35-7.11-.35-13.06h10.96l-.32 3.13h-6.58l-.17 5.17h5.84l-.32 3.1h-5.64l-.03 1.17.2 4.5h7.08Zm15.58-19.79 3.56-.44-.38 12.63.33 6.95-3.45.74-8.71-14.09v6.4l.41 7.6h-3.66l.35-7.11-.35-12.97 3.51-.18 8.68 14.29Zm11.08 2.57-5.18.41.33-3.36h13.88l-.32 3.36-5.09-.44-.11 9.65.35 7.6h-4.1l.35-7.11Zm19.55-3.24q3.45 0 5.69 2.63t2.24 6.69q0 5.15-2.66 8.3-2.66 3.16-6.99 3.16-3.36 0-5.64-2.7-2.28-2.71-2.28-6.68 0-4.97 2.72-8.19 2.71-3.21 6.92-3.21Zm3.95 10.96q0-7.4-4.85-7.4-2.22 0-3.5 1.65-1.27 1.65-1.27 4.94t1.36 5.41 3.6 2.12q2.23 0 3.45-1.8 1.21-1.79 1.21-4.92Zm12.42 1.72h-1.66v.18l.35 7.6h-3.92l.35-7.11-.35-13.06h6.35q2.8 0 4.47 1.52 1.66 1.52 1.66 4.03 0 1.9-.98 3.47-.97 1.56-2.64 2.47l5.09 7.19-3.54 1.81-4.56-8.13q-.21.03-.62.03Zm.06-9.44h-1.43l-.2 6.61h1.98q1.47 0 2.27-.97.8-.96.8-2.75 0-2.89-3.42-2.89Zm16.14-2.95h6.34q2.81 0 4.45 1.27 1.63 1.27 1.63 3.4 0 3.43-2.8 4.77 3.8 1.32 3.8 4.85 0 2.66-2.28 4.43t-5.73 1.77q-1.81 0-5.41-.32l.35-7.11Zm5.96 11.49h-2.36l-.03 1.08.2 4.76q1.7.15 2.6.15 1.55 0 2.41-.78.87-.77.87-2.26t-.88-2.22-2.81-.73Zm-.67-8.54h-1.43l-.18 5.7h1.9q1.49 0 2.28-.8.79-.81.79-2.3 0-2.6-3.36-2.6Zm19.85-3.24q3.45 0 5.69 2.63 2.23 2.63 2.23 6.69 0 5.15-2.66 8.3-2.66 3.16-6.99 3.16-3.36 0-5.64-2.7-2.28-2.71-2.28-6.68 0-4.97 2.72-8.19 2.72-3.21 6.93-3.21Zm3.95 10.96q0-7.4-4.86-7.4-2.22 0-3.49 1.65t-1.27 4.94 1.36 5.41 3.59 2.12q2.24 0 3.45-1.8 1.22-1.79 1.22-4.92Zm15.37-10.96q3.45 0 5.69 2.63 2.23 2.63 2.23 6.69 0 5.15-2.66 8.3-2.66 3.16-6.98 3.16-3.36 0-5.64-2.7-2.28-2.71-2.28-6.68 0-4.97 2.71-8.19 2.72-3.21 6.93-3.21Zm3.95 10.96q0-7.4-4.85-7.4-2.23 0-3.5 1.65t-1.27 4.94 1.36 5.41 3.6 2.12q2.23 0 3.45-1.8 1.21-1.79 1.21-4.92Zm7.19-10.09 4.15-.73-.32 9.53 7.45-9.47 2.99 1.99-6.73 7.8 7.13 8.45-3.74 2.34-7.13-10.09-.06 2.17.35 7.6h-4.09l.35-7.11Zm16.9 0 4.15-.73-.41 12.72.35 7.6h-4.09l.35-7.11Zm20.72-.2 3.57-.44-.38 12.63.32 6.95-3.45.74-8.71-14.09v6.4l.41 7.6h-3.66l.36-7.11-.36-12.97 3.51-.18 8.68 14.29Zm15.29 20.11q-3.83 0-6.17-2.57-2.34-2.58-2.34-6.81 0-4.83 2.93-8.13 2.92-3.3 7.19-3.3 1.69 0 3.14.3 1.45.31 2.06.63l.59.32-1.7 4.07q-.88-.59-2.37-1.1t-2.63-.51q-2.37 0-3.8 1.66-1.43 1.67-1.43 4.42 0 3.71 1.36 5.79 1.36 2.07 3.78 2.07 1.58 0 2.99-.44v-4.53h-3.77l.29-2.95h7.01l-.26 4.77.21 5.05q-4.3 1.26-7.08 1.26Zm14.09-2.98 2.28-3.16q2.49 2.49 4.97 2.49 1.29 0 2.06-.6.78-.6.78-1.55t-.94-1.61q-.93-.66-2.26-1.16-1.33-.49-2.65-1.12t-2.25-1.8q-.94-1.17-.94-2.83 0-2.64 2.2-4.55 2.19-1.91 5.2-1.91 1.37 0 2.66.29t2.48.85l-1.98 4.26q-.82-.64-2.24-1.18t-2.48-.54q-1.07 0-1.73.51t-.66 1.36.94 1.5q.93.66 2.26 1.16t2.66 1.1 2.27 1.76q.93 1.17.93 2.84 0 2.75-2.19 4.81t-5.11 2.06q-2.2 0-3.89-1.05-1.49-.91-2.11-1.61Zm20.43-13.24 2.17 4.35h.35l2.16-3.97 2.19-4.83 3.57.53-2.69 4.88-3.8 7.43.32 7.51h-4.09l.29-7.02-3.68-7.48-2.81-5.12 4.12-.73Zm10.91 13.24 2.28-3.16q2.48 2.49 4.97 2.49 1.28 0 2.06-.6.77-.6.77-1.55t-.93-1.61q-.94-.66-2.27-1.16-1.33-.49-2.64-1.12-1.32-.63-2.25-1.8-.94-1.17-.94-2.83 0-2.64 2.19-4.55 2.2-1.91 5.21-1.91 1.37 0 2.66.29 1.28.29 2.48.85l-1.99 4.26q-.81-.64-2.23-1.18t-2.49-.54q-1.06 0-1.72.51t-.66 1.36.94 1.5q.93.66 2.26 1.16t2.66 1.1 2.27 1.76q.93 1.17.93 2.84 0 2.75-2.19 4.81t-5.12 2.06q-2.19 0-3.88-1.05-1.49-.91-2.11-1.61Zm19.5-14.56-5.18.41.32-3.36h13.89l-.32 3.36-5.09-.44-.12 9.65.36 7.6h-4.1l.35-7.11Zm22.07 17.22h-10.7l.35-7.11-.35-13.06h10.96l-.32 3.13h-6.58l-.17 5.17h5.84l-.32 3.1h-5.64l-.03 1.17.2 4.5h7.08Zm8.47-20.38 3.69 11.26h.29l4.27-11.11 4.03.12.12 12.57.55 7.54h-3.94l.14-7.6-.32-7.69-3.51 9.68-3.59.17-3.27-9.85-.27 7.69.21 7.6h-3.63l.41-7.11.18-12.54Z" font-family="Acme" font-size="29.233"/><path fill="#72c4ff" stroke="null" d="m661.311 894.823-.1-2.75q-1.11-.44-2.32-.44-2.45 0-3.95 1.8-1.51 1.8-1.51 5.26 0 3.47 1.58 4.85 1.09.98 3.01.98 1.24 0 2.48-.29 1.25-.28 1.7-.54l.31 1.06q-.96.63-3.34.87-.69.09-1.46.09t-1.81-.25-1.93-1.01q-2.01-1.71-2.01-5.69 0-3.99 1.89-6.16 1.9-2.18 4.93-2.18 1.69 0 2.9.67.46.24.72.52v3.14Zm2.52 8.03q-.39-1.04-.39-2.43 0-2.66 1.49-4.19 1.49-1.52 3.75-1.52 3.53 0 4.63 2.86.41 1.03.41 2.42 0 2.66-1.49 4.19-1.5 1.53-3.75 1.53-3.53 0-4.65-2.86Zm1.01-2.58q0 1.99 1.03 3.09 1.03 1.09 2.66 1.09 1.62 0 2.7-1.16t1.08-3.15-1.01-3.08q-1.02-1.1-2.66-1.1-1.63 0-2.71 1.16-1.09 1.16-1.09 3.15Zm12.04-5.58v1.29q1.63-1.19 3.08-1.25 1.32 0 2.03.32.72.33 1.18.92.47.6.47 1.68v7.97h-1.41v-7.6q0-.8-.34-1.23-.7-.81-2.13-.81-1.36.07-2.88.89v8.75h-1.4v-10.83Zm10.98 0v1.29q1.63-1.19 3.08-1.25 1.32 0 2.03.32.72.33 1.18.92.47.6.47 1.68v7.97h-1.41v-7.6q0-.8-.35-1.23-.69-.81-2.12-.81-1.36.07-2.88.89v8.75h-1.41v-10.83Zm10.66 5.6v.35q0 3.81 3.63 3.81 1.54 0 2.82-.41.32-.11.45-.17l.33 1.14q-.76.46-2.75.65-.56.05-1.19.05-1.82 0-3.03-.91-1.67-1.24-1.67-4.12t1.5-4.42q1.51-1.55 3.65-1.55 2.15 0 3.23 1.38.82 1.11.82 2.93 0 .43-.04.91h-7.73q-.02.17-.02.36Zm3.83-4.24q-1.34 0-2.3.81-.95.81-1.32 2.09h6.3q-.1-2.4-1.86-2.79-.39-.11-.82-.11Zm12.84 2.47-.11-2.28q-.89-.28-1.82-.28-1.88 0-3.02 1.22-1.14 1.21-1.14 3.42 0 3.85 3.58 3.85 1.43 0 2.94-.48.31-.08.37-.13l.35 1.17q-.76.46-2.75.65-.57.05-1.19.05-1.84 0-3.04-.91-1.66-1.26-1.66-4.14t1.55-4.43q1.54-1.54 3.99-1.54.78 0 1.66.2.87.21 1.35.64v2.84Zm7.9 5.54.26 1.17q-.39.39-1.4.39-1.43 0-1.93-.74-.85-.8-.85-2.16v-6.67h-1.21l.2-1.26h1.01v-2.14l1.41-.13v2.27h2.51v1.26h-2.51v7.02q0 1.25 1.3 1.25.56 0 1.21-.26Zm18.08-13.6 3.38 13.04 3.6-13.04h1.4l-4.44 15.16h-1.32l-3.27-12.91-3.57 12.91h-1.34l-3.88-15.16h1.37l3.29 12.97 3.57-12.97Zm10.42 4.33 1.41-.1v10.93h-1.41Zm.65-2.9q-.43 0-.66-.28t-.23-.71q0-.44.25-.71t.68-.27q.44 0 .71.27t.27.75-.3.71q-.29.24-.72.24Zm8.1 12.17.26 1.17q-.39.39-1.41.39-1.43 0-1.93-.74-.84-.8-.84-2.16v-6.67h-1.21l.19-1.26h1.02v-2.14l1.41-.13v2.27h2.51v1.26h-2.51v7.02q0 1.25 1.29 1.25.57 0 1.22-.26Zm3.85-14.68v6.65q1.71-1.24 3.29-1.3 1.35 0 2.06.32.71.33 1.17.92.45.6.45 1.68v7.97h-1.4v-7.6q0-.8-.35-1.23-.69-.81-2.12-.81-1.41.07-3.1.91v8.73h-1.41v-16.13Zm20.94 16.24h-1.36v-13.86h-4.29l.11-1.3h9.81l-.11 1.3h-4.16Zm7.54-16.24v6.65q1.71-1.24 3.29-1.3 1.34 0 2.05.32.72.33 1.17.92.46.6.46 1.68v7.97h-1.41v-7.6q0-.8-.35-1.23-.69-.81-2.12-.81-1.4.07-3.09.91v8.73h-1.41v-16.13Zm10.22 10.91v.35q0 3.81 3.63 3.81 1.54 0 2.82-.41.32-.11.45-.17l.33 1.14q-.76.46-2.75.65-.56.05-1.19.05-1.82 0-3.03-.91-1.67-1.24-1.67-4.12t1.5-4.42q1.51-1.55 3.65-1.55 2.15 0 3.23 1.38.82 1.11.82 2.93 0 .43-.04.91h-7.73q-.02.17-.02.36Zm3.83-4.24q-1.34 0-2.3.81-.95.81-1.32 2.09h6.3q-.1-2.4-1.86-2.79-.39-.11-.82-.11Zm19.25.87q2.4.88 2.4 4 0 1.58-.35 2.45-.36.86-1.03 1.36-1.24.89-3.86.89h-3.57v-15.16h3.25q3.42 0 4.33 1.74.32.6.32 1.47 0 .86-.44 1.77t-1.05 1.48Zm-2.4.84h-2.54v6.67h1.99q2.02 0 2.84-.54 1.04-.67 1.04-2.67 0-2.7-1.9-3.26-.63-.2-1.43-.2Zm1.36-1.1q1.06-1.39 1.06-2.73 0-1.35-.84-1.81-.85-.47-2.45-.47h-1.67v4.92h2.64q.65 0 1.26.09Zm6.47 3.63v.35q0 3.81 3.64 3.81 1.54 0 2.82-.41.32-.11.45-.17l.33 1.14q-.76.46-2.75.65-.57.05-1.19.05-1.82 0-3.04-.91-1.66-1.24-1.66-4.12t1.5-4.42q1.51-1.55 3.65-1.55t3.23 1.38q.82 1.11.82 2.93 0 .43-.04.91h-7.73q-.03.17-.03.36Zm3.84-4.24q-1.34 0-2.3.81-.95.81-1.32 2.09h6.3q-.11-2.4-1.86-2.79-.39-.11-.82-.11Zm12.54-1.04-.35 1.21q-.78-.26-2.12-.26-1.35 0-2.08.48-.74.48-.74 1.18t.43 1.03q.44.32 1.09.55t1.42.44q.76.22 1.41.57 1.52.78 1.52 2.31 0 1.54-1.05 2.36-1.05.83-3.06.83-1.02 0-1.96-.21-.95-.2-1.44-.57l.47-1.15q.5.43 2.02.63.47.06.97.06 1.13 0 1.88-.46.76-.47.76-1.42 0-.65-.43-1.02t-1.08-.62q-.65-.24-1.42-.44-.77-.19-1.42-.51-.65-.31-1.08-.82-.44-.51-.44-1.38 0-1.4 1.09-2.25 1.08-.84 2.9-.84.45 0 .93.05.48.06.87.1Zm6.97 9.05.26 1.17q-.39.39-1.41.39-1.43 0-1.93-.74-.84-.8-.84-2.16v-6.67h-1.21l.19-1.26h1.02v-2.14l1.41-.13v2.27h2.51v1.26h-2.51v7.02q0 1.25 1.3 1.25.56 0 1.21-.26Zm10.59 1.56h-1.37v-15.16h1.47l5.57 11.09 5.56-11.09h1.48v15.16h-1.37v-12.65l-4.93 9.81h-1.48l-4.93-9.81Zm16.32-5.33v.35q0 3.81 3.64 3.81 1.54 0 2.82-.41.32-.11.45-.17l.33 1.14q-.76.46-2.75.65-.57.05-1.2.05-1.81 0-3.03-.91-1.66-1.24-1.66-4.12t1.5-4.42q1.51-1.55 3.65-1.55t3.23 1.38q.82 1.11.82 2.93 0 .43-.04.91h-7.74q-.02.17-.02.36Zm3.84-4.24q-1.35 0-2.3.81t-1.32 2.09h6.3q-.11-2.4-1.86-2.79-.39-.11-.82-.11Zm7.23-1.36v1.29q1.62-1.19 3.07-1.25 1.32 0 2.04.32.71.33 1.18.92.46.6.46 1.68v7.97h-1.4v-7.6q0-.8-.35-1.23-.69-.81-2.12-.81-1.37.07-2.88.89v8.75h-1.41v-10.83Zm14.05 9.37.26 1.17q-.39.39-1.41.39-1.43 0-1.92-.74-.85-.8-.85-2.16v-6.67h-1.21l.19-1.26h1.02v-2.14l1.41-.13v2.27h2.51v1.26h-2.51v7.02q0 1.25 1.3 1.25.56 0 1.21-.26Zm1.67-1.21q-.39-1.04-.39-2.43 0-2.66 1.49-4.19 1.5-1.52 3.75-1.52 3.53 0 4.63 2.86.41 1.03.41 2.42 0 2.66-1.49 4.19t-3.75 1.53q-3.53 0-4.65-2.86Zm1.02-2.58q0 1.99 1.03 3.09 1.02 1.09 2.65 1.09 1.62 0 2.7-1.16 1.09-1.16 1.09-3.15t-1.02-3.08q-1.02-1.1-2.65-1.1-1.64 0-2.72 1.16t-1.08 3.15Zm16.84-5.26-.56 1.3q-.35-.2-.74-.2t-.43.03q-.82 0-1.66.59-.83.6-1.41 1.33v7.56h-1.41v-10.83l1.41-.1v2.42q.8-1.02 1.36-1.43 1.04-.78 1.99-.82.13-.02.48-.02t.97.17Z" font-family="Antic" font-size="21.654"/></g><path fill="transparent" stroke="transparent" stroke-width="3.04" d="M250 405.015h1000v689.97H250z"/></g></svg>